<svg width="6em" height="3em" viewBox="0 0 90 44" fill="currentColor" xmlns="http://www.w3.org/2000/svg">
    <path fill-rule="evenodd" clip-rule="evenodd"
          d="M1.01204 4.27553C0 6.13176 0 8.59784 0 13.53V30.47C0 35.4022 0 37.8682 1.01204 39.7245C1.76 41.0964 2.87965 42.2253 4.2402 42.9795C6.08108 44 8.52678 44 13.4182 44H30.2182C35.1096 44 37.5553 44 39.3962 42.9795C40.7567 42.2253 41.8764 41.0964 42.6243 39.7245C43.6364 37.8682 43.6364 35.4022 43.6364 30.47V13.53C43.6364 8.59784 43.6364 6.13176 42.6243 4.27553C41.8764 2.90365 40.7567 1.77467 39.3962 1.02047C37.5553 0 35.1096 0 30.2182 0H13.4182C8.52678 0 6.08108 0 4.2402 1.02047C2.87965 1.77467 1.76 2.90365 1.01204 4.27553ZM21.8182 8.25C19.9354 8.25 18.4091 9.78902 18.4091 11.6875V18.5625H11.5909C9.70812 18.5625 8.18182 20.1015 8.18182 22C8.18182 23.8985 9.70812 25.4375 11.5909 25.4375H18.4091V32.3125C18.4091 34.211 19.9354 35.75 21.8182 35.75C23.701 35.75 25.2273 34.211 25.2273 32.3125V25.4375H32.0455C33.9282 25.4375 35.4545 23.8985 35.4545 22C35.4545 20.1015 33.9282 18.5625 32.0455 18.5625H25.2273V11.6875C25.2273 9.78902 23.701 8.25 21.8182 8.25Z"
    />
    <path fill-rule="evenodd" clip-rule="evenodd"
          d="M47.3757 4.27553C46.3636 6.13176 46.3636 8.59784 46.3636 13.53V30.47C46.3636 35.4022 46.3636 37.8682 47.3757 39.7245C48.1236 41.0964 49.2433 42.2253 50.6038 42.9795C52.4447 44 54.8904 44 59.7818 44H76.5818C81.4732 44 83.9189 44 85.7598 42.9795C87.1203 42.2253 88.24 41.0964 88.988 39.7245C90 37.8682 90 35.4022 90 30.47V13.53C90 8.59784 90 6.13176 88.988 4.27553C88.24 2.90365 87.1203 1.77467 85.7598 1.02047C83.9189 0 81.4732 0 76.5818 0H59.7818C54.8904 0 52.4447 0 50.6038 1.02047C49.2433 1.77467 48.1236 2.90365 47.3757 4.27553ZM73.6364 11.3438C73.6364 14.1915 71.3469 16.5 68.5227 16.5C65.6985 16.5 63.4091 14.1915 63.4091 11.3438C63.4091 8.49603 65.6985 6.1875 68.5227 6.1875C71.3469 6.1875 73.6364 8.49603 73.6364 11.3438ZM58.2955 26.8125C61.1196 26.8125 63.4091 24.504 63.4091 21.6562C63.4091 18.8085 61.1196 16.5 58.2955 16.5C55.4713 16.5 53.1818 18.8085 53.1818 21.6562C53.1818 24.504 55.4713 26.8125 58.2955 26.8125ZM78.75 26.8125C81.5742 26.8125 83.8636 24.504 83.8636 21.6562C83.8636 18.8085 81.5742 16.5 78.75 16.5C75.9258 16.5 73.6364 18.8085 73.6364 21.6562C73.6364 24.504 75.9258 26.8125 78.75 26.8125ZM68.5227 37.125C71.3469 37.125 73.6364 34.8165 73.6364 31.9688C73.6364 29.121 71.3469 26.8125 68.5227 26.8125C65.6985 26.8125 63.4091 29.121 63.4091 31.9688C63.4091 34.8165 65.6985 37.125 68.5227 37.125Z"
    />
</svg>
